<svg width="45" height="42" viewBox="0 0 45 42" fill="none" xmlns="http://www.w3.org/2000/svg">
<path d="M40.1667 31.4167C41.3611 31.4167 42.3681 31.8333 43.1875 32.6667C44.007 33.5 44.4097 34.4722 44.3958 35.5833L27.6667 41.8333L13.0833 37.6667V18.9167H17.1458L32.2917 24.5208C33.375 24.9514 33.9167 25.7292 33.9167 26.8542C33.9167 27.507 33.6806 28.0764 33.2083 28.5625C32.7361 29.0486 32.1389 29.3056 31.4167 29.3333H25.5833L21.9375 27.9375L21.25 29.8958L25.5833 31.4167H40.1667ZM31.8333 2.72917C33.3056 1.02084 35.1806 0.166672 37.4583 0.166672C39.3472 0.166672 40.9445 0.861116 42.25 2.25001C43.5556 3.63889 44.25 5.23612 44.3333 7.04167C44.3333 8.47223 43.6389 10.1806 42.25 12.1667C40.8611 14.1528 39.4931 15.8125 38.1458 17.1458C36.7986 18.4792 34.6945 20.4583 31.8333 23.0833C28.9444 20.4583 26.8194 18.4792 25.4583 17.1458C24.0972 15.8125 22.7292 14.1528 21.3542 12.1667C19.9792 10.1806 19.3056 8.47223 19.3333 7.04167C19.3333 5.15278 20.0069 3.55556 21.3542 2.25001C22.7014 0.94445 24.3264 0.250005 26.2292 0.166672C28.4514 0.166672 30.3194 1.02084 31.8333 2.72917ZM0.550003 18.9167H8.91667V41.8333H0.550003V18.9167Z" fill="black"/>
</svg>
