<svg width="50" height="34" viewBox="0 0 50 34" fill="none" xmlns="http://www.w3.org/2000/svg">
<path d="M5.74998 20.125L4.18748 17H15.125L13.875 13.875H3.66665L2.10415 10.75H18.3541L17.1041 7.62499H1.81248L0.020813 4.49999H7.83331C7.83331 3.39493 8.2723 2.33512 9.0537 1.55372C9.8351 0.772315 10.8949 0.333328 12 0.333328H37V8.66666H43.25L49.5 17V27.4167H45.3333C45.3333 29.0743 44.6748 30.664 43.5027 31.8361C42.3306 33.0082 40.7409 33.6667 39.0833 33.6667C37.4257 33.6667 35.836 33.0082 34.6639 31.8361C33.4918 30.664 32.8333 29.0743 32.8333 27.4167H24.5C24.5 29.0743 23.8415 30.664 22.6694 31.8361C21.4973 33.0082 19.9076 33.6667 18.25 33.6667C16.5924 33.6667 15.0027 33.0082 13.8306 31.8361C12.6585 30.664 12 29.0743 12 27.4167H7.83331V20.125H5.74998ZM39.0833 30.5417C39.9121 30.5417 40.707 30.2124 41.293 29.6264C41.8791 29.0403 42.2083 28.2455 42.2083 27.4167C42.2083 26.5879 41.8791 25.793 41.293 25.207C40.707 24.6209 39.9121 24.2917 39.0833 24.2917C38.2545 24.2917 37.4597 24.6209 36.8736 25.207C36.2876 25.793 35.9583 26.5879 35.9583 27.4167C35.9583 28.2455 36.2876 29.0403 36.8736 29.6264C37.4597 30.2124 38.2545 30.5417 39.0833 30.5417ZM42.2083 11.7917H37V17H46.2916L42.2083 11.7917ZM18.25 30.5417C19.0788 30.5417 19.8736 30.2124 20.4597 29.6264C21.0457 29.0403 21.375 28.2455 21.375 27.4167C21.375 26.5879 21.0457 25.793 20.4597 25.207C19.8736 24.6209 19.0788 24.2917 18.25 24.2917C17.4212 24.2917 16.6263 24.6209 16.0403 25.207C15.4542 25.793 15.125 26.5879 15.125 27.4167C15.125 28.2455 15.4542 29.0403 16.0403 29.6264C16.6263 30.2124 17.4212 30.5417 18.25 30.5417Z" fill="black"/>
</svg>
