<svg width="36" height="29" viewBox="0 0 36 29" fill="none" xmlns="http://www.w3.org/2000/svg">
<path d="M17.75 0.824707C8.23958 0.824707 0.458328 7.04163 0.458328 14.6986C0.458328 21.6216 6.78708 27.3678 15.0525 28.4062V18.7139H10.6604V14.6986H15.0525V11.6386C15.0525 8.16317 17.629 6.2524 21.5887 6.2524C23.4735 6.2524 25.4448 6.51548 25.4448 6.51548V9.93548H23.266C21.1219 9.93548 20.4475 11.0016 20.4475 12.0955V14.6986H25.2546L24.4765 18.7139H20.4475V28.4062C24.5222 27.891 28.2326 26.2262 30.9088 23.7125C33.5851 21.1988 35.0509 18.0018 35.0417 14.6986C35.0417 7.04163 27.2604 0.824707 17.75 0.824707Z" fill="black"/>
</svg>
