<svg width="36" height="29" viewBox="0 0 36 29" fill="none" xmlns="http://www.w3.org/2000/svg">
<path d="M10.9875 0.769287H25.5125C31.0458 0.769287 35.5417 4.36929 35.5417 8.80006V20.4308C35.5417 22.5607 34.485 24.6034 32.6042 26.1094C30.7234 27.6155 28.1724 28.4616 25.5125 28.4616H10.9875C5.45418 28.4616 0.958344 24.8616 0.958344 20.4308V8.80006C0.958344 6.67016 2.01499 4.62751 3.89582 3.12145C5.77665 1.61538 8.32761 0.769287 10.9875 0.769287ZM10.6417 3.53852C8.9907 3.53852 7.40735 4.06368 6.23994 4.99848C5.07252 5.93327 4.41668 7.20113 4.41668 8.52313V20.7077C4.41668 23.4631 7.20064 25.6924 10.6417 25.6924H25.8583C27.5093 25.6924 29.0927 25.1672 30.2601 24.2324C31.4275 23.2976 32.0833 22.0298 32.0833 20.7077V8.52313C32.0833 5.76775 29.2994 3.53852 25.8583 3.53852H10.6417ZM27.3281 5.61544C27.9014 5.61544 28.4512 5.79779 28.8565 6.12237C29.2619 6.44695 29.4896 6.88718 29.4896 7.34621C29.4896 7.80524 29.2619 8.24547 28.8565 8.57005C28.4512 8.89463 27.9014 9.07698 27.3281 9.07698C26.7549 9.07698 26.2051 8.89463 25.7998 8.57005C25.3944 8.24547 25.1667 7.80524 25.1667 7.34621C25.1667 6.88718 25.3944 6.44695 25.7998 6.12237C26.2051 5.79779 26.7549 5.61544 27.3281 5.61544ZM18.25 7.69236C20.543 7.69236 22.7421 8.42176 24.3635 9.72009C25.9849 11.0184 26.8958 12.7793 26.8958 14.6154C26.8958 16.4516 25.9849 18.2125 24.3635 19.5108C22.7421 20.8091 20.543 21.5385 18.25 21.5385C15.957 21.5385 13.7579 20.8091 12.1365 19.5108C10.5151 18.2125 9.60418 16.4516 9.60418 14.6154C9.60418 12.7793 10.5151 11.0184 12.1365 9.72009C13.7579 8.42176 15.957 7.69236 18.25 7.69236ZM18.25 10.4616C16.8742 10.4616 15.5547 10.8992 14.5819 11.6782C13.609 12.4572 13.0625 13.5138 13.0625 14.6154C13.0625 15.7171 13.609 16.7737 14.5819 17.5527C15.5547 18.3317 16.8742 18.7693 18.25 18.7693C19.6258 18.7693 20.9453 18.3317 21.9181 17.5527C22.891 16.7737 23.4375 15.7171 23.4375 14.6154C23.4375 13.5138 22.891 12.4572 21.9181 11.6782C20.9453 10.8992 19.6258 10.4616 18.25 10.4616Z" fill="black"/>
</svg>
