<svg width="43" height="28" viewBox="0 0 43 28" fill="none" xmlns="http://www.w3.org/2000/svg">
<path d="M0.75 0.5V25.5H22.25C21.7917 24.1042 21.5833 22.7083 21.5833 21.3333H9.08333C9.08333 19.0417 7.22917 17.1667 4.91667 17.1667V8.83333C7.22917 8.83333 9.08333 6.97917 9.08333 4.66667H29.9167C29.9167 6.97917 31.7917 8.83333 34.0833 8.83333V8.95833C35.4792 8.95833 36.875 9.20833 38.25 9.66667V0.5H0.75ZM19.5 6.75C15.9583 6.8125 13.25 9.45833 13.25 13C13.25 16.5417 15.9583 19.125 19.5 19.25C20.2917 19.25 21.1042 19.0833 21.875 18.7708C22.4375 16.4792 23.375 14.3125 25.6875 12.1875C25.4375 9.41667 22.8125 6.6875 19.5 6.75ZM39.5625 13.5625L31.5 21.6875L28.6875 18.8333L25.75 21.7917L31.4792 27.5833L42.4792 16.5L39.5625 13.5625Z" fill="black"/>
</svg>
