<svg width="37" height="33" viewBox="0 0 37 33" fill="none" xmlns="http://www.w3.org/2000/svg">
<path d="M18.25 0.664551C13.8285 0.664551 10.4514 3.95649 10.0878 7.97532H1.69863C0.756579 7.97532 -0.0105221 8.62731 0.0418709 9.37984L1.4733 29.4325C1.59736 31.1851 3.42363 32.5661 5.61519 32.5661H30.8848C33.077 32.5661 34.9026 31.1849 35.0267 29.4325L36.4581 9.38114C36.5122 8.62807 35.7434 7.97532 34.8014 7.97532H26.4122C26.0486 3.95649 22.6715 0.664551 18.25 0.664551ZM18.25 1.99378C21.6007 1.99378 24.3994 4.577 24.7538 7.97532H11.7462C12.1006 4.577 14.8993 1.99378 18.25 1.99378ZM18.3165 11.963C21.5037 11.963 23.8932 13.3327 24.0924 13.4324L23.2381 14.5423C23.0306 14.4293 22.6578 14.2492 22.5167 14.1827C21.6701 13.8172 20.1093 13.2728 18.3165 13.2728C15.619 13.2728 13.6688 14.4686 13.6688 16.1169C13.6688 17.7585 15.478 18.4096 18.4494 19.2803C21.4623 20.1576 24.8657 21.1544 24.8657 24.3246C24.8657 26.7106 21.927 28.5849 18.1754 28.5849C14.8637 28.5849 12.1413 26.9568 11.469 26.5248L12.3897 25.428C12.4146 25.4479 15.0629 27.2686 18.1754 27.2686C20.9642 27.2686 23.23 25.9463 23.23 24.3246C23.23 22.2244 21.2135 21.4799 17.8852 20.5096C15.1462 19.7054 12.0331 18.7953 12.0331 16.1169C12.0331 13.7508 14.7309 11.963 18.3165 11.963Z" fill="black"/>
</svg>
