<svg width="37" height="25" viewBox="0 0 37 25" fill="none" xmlns="http://www.w3.org/2000/svg">
<path d="M36.8371 3.30781C35.5056 3.79242 34.0704 4.11088 32.5833 4.26319C34.105 3.52934 35.2808 2.36627 35.8342 0.967805C34.3989 1.66011 32.8081 2.14473 31.1308 2.42165C29.7648 1.23088 27.8454 0.538574 25.6667 0.538574C21.6031 0.538574 18.2831 3.19704 18.2831 6.47857C18.2831 6.94934 18.3523 7.40627 18.4733 7.8355C12.3175 7.58627 6.83603 5.21857 3.18749 1.63242C2.54769 2.50473 2.18457 3.52934 2.18457 4.60934C2.18457 6.67242 3.48144 8.50011 5.48728 9.53857C4.25957 9.53857 3.11832 9.26165 2.1154 8.84627C2.1154 8.84627 2.1154 8.84627 2.1154 8.8878C2.1154 11.7678 4.67457 14.177 8.06374 14.717C7.44124 14.8555 6.78415 14.9247 6.10978 14.9247C5.6429 14.9247 5.17603 14.8832 4.72644 14.814C5.66019 17.154 8.37499 18.8986 11.6431 18.9401C9.11853 20.5463 5.91957 21.4878 2.42665 21.4878C1.83874 21.4878 1.25082 21.4601 0.662903 21.4047C3.94832 23.094 7.85624 24.077 12.0408 24.077C25.6667 24.077 33.1539 15.0217 33.1539 7.17088C33.1539 6.9078 33.1539 6.65857 33.1367 6.3955C34.5891 5.56473 35.8341 4.51242 36.8371 3.30781Z" fill="black"/>
</svg>
